<?xml version="1.0" encoding="utf-8"?>
<!-- Generator: Adobe Illustrator 23.0.1, SVG Export Plug-In . SVG Version: 6.00 Build 0)  -->
<svg version="1.1" id="Layer_1" xmlns="http://www.w3.org/2000/svg" xmlns:xlink="http://www.w3.org/1999/xlink" x="0px" y="0px"
	 viewBox="0 0 200 200" style="enable-background:new 0 0 200 200;" xml:space="preserve">
<style type="text/css">
	.Drop_x0020_Shadow{fill:none;}
	.Outer_x0020_Glow_x0020_5_x0020_pt{fill:none;}
	.Jive_GS{fill:#A6D0E4;}
	.st0{fill:#D40000;}
	.st1{fill:none;stroke:#D40000;stroke-width:3.2054;stroke-miterlimit:10;}
	.st2{fill:none;stroke:#D40000;stroke-width:6.4108;stroke-linecap:round;stroke-linejoin:round;}
</style>
<g>
	<g id="XMLID_1_">
		<g>
			<path class="st0" d="M95.06,83.18c-0.11,0.9-4.61,10.1-12.83,10.59l0.13,36.9c0,8.73,8.39,16.89,19.86,16.89
				s20.76-8.71,20.76-17.42l0.26-65.09c0,0,2.37-3.07,4.1,0.26v65.34v0.02c0,11.85-11.19,21.44-24.98,21.44s-24.98-9.59-24.98-21.44
				L77.14,94c0,0-8.73,0.34-13.88-11.55V65.3c0,0,0-2.37,3.33-2.31h2.56V50.44c0,0,2.05-1.79,4.61,0V63h11.02l0.26-12.56
				c0,0,3.16-2.31,4.36,0l0.15,12.49h2.56c0,0,2.84,0.17,3.1,2.48c0.21,1.96,0.28,12.66,0.3,15.91
				C95.51,81.96,95.14,82.51,95.06,83.18z M83.98,89.54c0,0,5.49-2.69,6.53-7.58V67.54H68.13v14.41c0,0,2.69,6.04,6.73,7.58H83.98z"
				/>
		</g>
		<g>
			<path class="st1" d="M82.35,130.67l-0.13-36.9c8.22-0.49,12.73-9.69,12.83-10.59c0.09-0.66,0.45-1.22,0.45-1.86
				c-0.02-3.25-0.09-13.94-0.3-15.91c-0.26-2.31-3.1-2.48-3.1-2.48h-2.56L89.4,50.44c-1.2-2.31-4.36,0-4.36,0L84.79,63H73.77V50.44
				c-2.56-1.79-4.61,0-4.61,0V63h-2.56c-3.33-0.06-3.33,2.31-3.33,2.31v17.15C68.41,94.34,77.14,94,77.14,94l0.21,36.66v0.75"/>
			<path class="st1" d="M127.32,130.65V65.3c-1.73-3.33-4.1-0.26-4.1-0.26l-0.26,65.09"/>
			<path class="st1" d="M90.51,81.96V67.54H68.13v14.41c0,0,2.69,6.04,6.73,7.58h9.12C83.98,89.54,89.46,86.85,90.51,81.96z"/>
			<path class="st1" d="M77.36,130.67c0,11.85,11.19,21.44,24.98,21.44s24.98-9.59,24.98-21.44"/>
			<path class="st1" d="M122.97,130.13c0,8.71-9.29,17.42-20.76,17.42s-19.86-8.16-19.86-16.89"/>
		</g>
	</g>
</g>
<g>
	<g>
		<path class="st2" d="M122.75,13.9c40.86,11.23,69.41,49.56,66.15,92.71c-2.94,38.96-30.92,70.14-67.31,79.48"/>
		<g>
			<polygon class="st0" points="131.75,172.73 123.44,185.66 136.38,193.97 127.36,195.93 114.43,187.62 122.74,174.69 			"/>
		</g>
	</g>
</g>
<g>
	<g>
		<path class="st2" d="M77.25,186.1C36.39,174.88,7.84,136.55,11.1,93.4c2.94-38.96,30.92-70.14,67.31-79.48"/>
		<g>
			<polygon class="st0" points="68.24,27.27 76.56,14.34 63.62,6.03 72.64,4.07 85.57,12.38 77.26,25.31 			"/>
		</g>
	</g>
</g>
</svg>
